<svg width="100" height="100" viewBox="0 0 100 100" xmlns="http://www.w3.org/2000/svg">
  <defs>
    <pattern id="eco-pattern" x="0" y="0" width="100" height="100" patternUnits="userSpaceOnUse">
      <!-- Recycling symbols -->
      <path d="M25,20 L30,10 L35,20 Z" fill="#4CAF50" opacity="0.4" />
      <path d="M30,10 L40,15 L35,20 Z" fill="#4CAF50" opacity="0.4" />
      <path d="M40,15 L40,25 L35,20 Z" fill="#4CAF50" opacity="0.4" />
      
      <path d="M65,70 L70,60 L75,70 Z" fill="#4CAF50" opacity="0.4" />
      <path d="M70,60 L80,65 L75,70 Z" fill="#4CAF50" opacity="0.4" />
      <path d="M80,65 L80,75 L75,70 Z" fill="#4CAF50" opacity="0.4" />
      
      <!-- Leaf shapes -->
      <path d="M15,40 Q25,30 15,50 Q5,40 15,40 Z" fill="#4CAF50" opacity="0.3" />
      <path d="M85,30 Q95,20 85,40 Q75,30 85,30 Z" fill="#4CAF50" opacity="0.3" />
      
      <!-- Circuit-like lines -->
      <line x1="10" y1="80" x2="40" y2="80" stroke="#4CAF50" stroke-width="1" opacity="0.2" />
      <line x1="40" y1="80" x2="40" y2="90" stroke="#4CAF50" stroke-width="1" opacity="0.2" />
      <line x1="60" y1="10" x2="90" y2="10" stroke="#4CAF50" stroke-width="1" opacity="0.2" />
      <line x1="60" y1="10" x2="60" y2="20" stroke="#4CAF50" stroke-width="1" opacity="0.2" />
      
      <!-- Small dots -->
      <circle cx="50" cy="50" r="1.5" fill="#4CAF50" opacity="0.4" />
      <circle cx="10" cy="10" r="1" fill="#4CAF50" opacity="0.4" />
      <circle cx="90" cy="90" r="1" fill="#4CAF50" opacity="0.4" />
      <circle cx="80" cy="20" r="1" fill="#4CAF50" opacity="0.4" />
      <circle cx="20" cy="80" r="1" fill="#4CAF50" opacity="0.4" />
    </pattern>
  </defs>
  
  <rect width="100" height="100" fill="url(#eco-pattern)" />
</svg> 