<?xml version="1.0" encoding="UTF-8"?>
<svg width="40px" height="40px" viewBox="0 0 40 40" version="1.1" xmlns="http://www.w3.org/2000/svg" xmlns:xlink="http://www.w3.org/1999/xlink">
  <g stroke="none" fill="none" fill-rule="evenodd">
    <path d="M20,0 C31.0457,0 40,8.9543 40,20 C40,31.0457 31.0457,40 20,40 C8.9543,40 0,31.0457 0,20 C0,8.9543 8.9543,0 20,0 Z" fill="#4CAF50"></path>
    <path d="M20,3 C29.3888,3 37,10.6112 37,20 C37,29.3888 29.3888,37 20,37 C10.6112,37 3,29.3888 3,20 C3,10.6112 10.6112,3 20,3 Z" fill="#388E3C"></path>
    <path d="M28,14 L25.5,14 L26,12 L21.5,12 L20,16 L23,16 L22,20 L25,17 L28,20 L27,16 L30,14 L28,14 Z M16,14 L19,14 L20,12 L14,12 L12,20 L14,20 L15,17 L18,20 L19,16 L16,14 Z M14.5,21 L17.5,25 L20,21 L14.5,21 Z" fill="#FFFFFF"></path>
  </g>
</svg> 